<svg xmlns="http://www.w3.org/2000/svg" viewBox="0 0 512 512">
  <path fill="#13AA52" d="M256 56C121.37 56 12.57 164.8 12.57 299.43c0 134.64 108.8 243.43 243.43 243.43 134.64 0 243.43-108.8 243.43-243.43C499.43 164.8 390.64 56 256 56zm149.43 243.43c0 82.37-66.71 149.43-149.09 149.43-82.37 0-149.09-67.06-149.09-149.43 0-82.37 66.72-149.43 149.09-149.43 82.38 0 149.09 67.06 149.09 149.43z"/>
  <path fill="#13AA52" d="M256 121.7c-16.88 0-30.57 13.69-30.57 30.57V256c0 16.88 13.69 30.57 30.57 30.57 16.88 0 30.57-13.69 30.57-30.57V152.27c0-16.88-13.69-30.57-30.57-30.57z"/>
  <path fill="#13AA52" d="M318.43 190c-16.88 0-30.57 13.69-30.57 30.57v66.29c0 16.88 13.69 30.57 30.57 30.57 16.88 0 30.57-13.69 30.57-30.57v-66.29c0-16.88-13.69-30.57-30.57-30.57z"/>
  <path fill="#13AA52" d="M193.57 190c-16.88 0-30.57 13.69-30.57 30.57v66.29c0 16.88 13.69 30.57 30.57 30.57 16.88 0 30.57-13.69 30.57-30.57v-66.29c0-16.88-13.69-30.57-30.57-30.57z"/>
</svg> 